PathFileType	4	(X/Y/Z)	C:/Users/beibeiliu/ov580/test_trc\sequence.13_training_dense_left.trc
DataRate	CameraRate	NumFrames	NumMarkers	Units	OrigDataRate	OrigDataStartFrame	OrigNumFrames
120	120	18	19	mm	120	217	288
Frame#	Time	ThumbCMC			ThumbMCP			ThumbIP			ThumbTip			IndexMCP			IndexPIP			IndexTip			MiddleMCP			MiddlePIP			MiddleTip			RingMCP			RingPIP			RingTip			PinkyMCP			PinkyPIP			PinkyTip			BackHand1			BackHand2			BackHand3	
		X0	Y0	Z0	X1	Y1	Z1	X2	Y2	Z2	X3	Y3	Z3	X4	Y4	Z4	X5	Y5	Z5	X6	Y6	Z6	X7	Y7	Z7	X8	Y8	Z8	X9	Y9	Z9	X10	Y10	Z10	X11	Y11	Z11	X12	Y12	Z12	X13	Y13	Z13	X14	Y14	Z14	X15	Y15	Z15	X16	Y16	Z16	X17	Y17	Z17	X18	Y18	Z18	
216	1.8	-244.115	14.8521	12.715	-243.645	46.9339	22.8717	-234.686	68.5503	25.2264	-225.983	85.1913	30.1489	-219.647	65.672	-22.2244	-212.842	84.5547	-5.12784	-212.65	80.6808	24.4679	-198.386	55.0205	-30.7429	-192.669	82.3114	-36.7333	-183.396	104.952	-38.5481	-178.33	42.1301	-23.8396	-170.712	59.4132	-32.8569	-162.774	78.8821	-41.7251	-164.14	29.0002	-8.38336	-149.611	41.4539	-14.1076	-135.436	46.3988	-23.4372	-196.369	3.65272	-11.9462	-205.402	-17.3877	1.73273	-223.528	-0.699213	-11.3587	
217	1.80833	-241.269	17.5065	15.6633	-242.471	45.8164	28.2012	-233.832	67.92	32.522	-226.147	83.6677	38.0076	-216.97	62.8133	-15.8188	-210.711	85.6784	0.550694	-209.301	82.2719	28.1497	-193.482	60.0839	-24.235	-189.652	80.8388	-26.7042	-179.202	108.601	-28.3824	-177.708	47.6274	-20.9981	-166.8	61.8758	-24.9429	-162.972	79.6825	-32.901	-161	29.783	-4.02745	-152.081	40.645	-8.22564	-137.646	47.6263	-18.7542	-194.814	4.68005	-6.6578	-208.081	-18.6357	1.56866	-223.817	3.91175	-10.613	
218	1.81667	-242.589	13.5966	18.152	-239.865	46.7033	30.2364	-235.03	66.3592	35.5069	-224.143	85.4064	39.7487	-216.759	65.0369	-13.0951	-209.808	86.4438	8.27116	-209.994	82.4661	33.5564	-197.485	58.9721	-20.602	-188.751	84.9997	-23.4927	-175.949	107.278	-21.8392	-178.831	44.2486	-14.7495	-166.612	63.8343	-21.3881	-161.234	81.7345	-29.913	-163.611	30.6761	-3.04333	-152.91	40.2404	-4.97203	-139.672	48.1318	-15.919	-198.11	5.23817	-7.23655	-203.886	-16.9772	3.0602	-223.026	3.37568	-7.47223	
219	1.825	-244.475	18.5688	17.0509	-240.674	46.5316	30.3219	-234.805	64.0825	36.1233	-223.891	82.8702	39.9062	-216.904	65.5325	-12.6552	-210.123	84.5245	3.32873	-212.189	82.3756	33.1873	-194.063	61.499	-21.1914	-188.558	82.1357	-22.2366	-177.374	104.927	-22.5183	-176.682	45.8186	-15.3145	-165.553	60.8258	-20.0044	-160.368	81.4357	-30.1084	-164.789	27.537	0.447905	-150.429	36.6549	-2.20139	-137.444	47.1263	-13.7861	-197.75	3.58121	-6.70828	-205.906	-18.9674	5.37922	-222.721	2.01938	-7.04352	
220	1.83333	-242.973	16.8619	16.44	-241.417	42.9758	30.0317	-233.437	65.1654	33.5335	-224.818	84.0928	39.8328	-215.185	61.6566	-14.2932	-209.093	82.5776	1.46836	-211.467	82.5267	31.5217	-191.578	57.5119	-22.0662	-185.359	77.7745	-22.1345	-175.829	104.183	-22.62	-176.033	40.3813	-14.2001	-166.684	61.3734	-22.6367	-158.548	75.7185	-27.478	-163.568	22.7496	1.50601	-151.324	37.9543	-5.99139	-137.253	43.7004	-15.9109	-197.046	0.970568	-5.47813	-203.99	-21.0516	3.65015	-222.992	-2.74558	-7.52945	
221	1.84167	-242.413	14.8407	16.3104	-242.312	43.1312	29.4513	-232.253	67.8716	31.7559	-224.752	81.4063	38.6474	-215.214	59.9471	-16.1196	-207.439	82.091	-0.00643221	-210.601	80.9469	32.3389	-192.321	53.8162	-21.1618	-182.493	75.6935	-23.3082	-173.345	100.523	-23.2138	-174.097	42.0465	-16.5955	-168.222	57.8207	-22.1378	-156.796	74.9028	-30.8944	-165.296	24.4007	-0.94421	-150.526	32.4622	-3.78883	-139.632	41.7899	-14.2914	-195.726	0.801433	-4.0079	-206.628	-21.7073	2.58993	-221.389	-0.897204	-7.91579	
222	1.85	-244.606	15.4823	16.0175	-241.174	43.8745	28.3789	-234.736	66.3452	33.3004	-222.023	83.4361	36.5942	-212.97	59.857	-16.4474	-207.725	82.8595	1.26574	-209.438	84.1972	27.4279	-194.338	52.5672	-22.5876	-184.595	77.1637	-26.1984	-173.589	102.745	-25.4524	-173.499	40.1594	-18.4152	-163.758	55.2209	-23.0074	-156.654	71.7526	-30.873	-159.536	22.3614	-2.40662	-150.672	30.7156	-6.13275	-137.239	41.2161	-17.2689	-193.122	0.344726	-4.58496	-208.208	-18.6098	3.22495	-224.174	0.517016	-9.23959	
223	1.85833	-246.214	17.908	15.4382	-239.993	48.0358	27.4576	-230.529	70.3942	30.9207	-221.044	87.2	35.6485	-211.072	59.664	-17.7701	-204.722	82.1317	-2.46937	-205.84	82.9579	27.2227	-193.211	53.6401	-26.1442	-179.418	76.3978	-27.7447	-168.3	101.611	-27.4225	-176.973	39.0951	-20.2097	-163.852	55.488	-26.3424	-152.693	71.3775	-35.3985	-162.87	22.8981	-6.0377	-149.276	29.676	-8.40456	-133.675	36.4435	-17.2283	-196.95	2.1473	-6.87499	-208.7	-24.6089	3.449	-226.683	2.61511	-11.039	
224	1.86667	-244.411	21.4035	14.652	-237.402	51.9835	25.6584	-228.069	74.1673	27.5588	-215.644	91.8688	31.7962	-212.938	61.3065	-20.532	-204.595	83.9254	-5.52727	-203.139	86.3486	22.8903	-193.03	51.9771	-27.5	-179.501	77.8672	-31.1085	-164.881	100.187	-31.621	-177.251	39.4698	-24.5887	-164.139	53.2485	-30.7069	-152.038	67.5471	-38.6529	-166.333	19.17	-5.88617	-146.515	28.7298	-12.1213	-131.758	34.0761	-21.2145	-197.087	1.37439	-8.86933	-212.698	-19.0375	2.38077	-226.372	1.01882	-8.48875	
225	1.875	-245.477	27.657	13.4303	-236.771	52.6822	24.9594	-223.595	72.8898	23.3899	-213.98	94.2513	26.9309	-210.663	65.1192	-23.6969	-197.706	84.9903	-9.5513	-194.487	86.7563	19.9065	-188.607	53.6041	-31.6212	-179.487	75.8032	-37.0603	-164.491	99.9179	-40.1787	-179.261	38.6471	-28.572	-163.726	54.9104	-37.6452	-155.093	66.6874	-45.2846	-163.809	21.4679	-14.4076	-149.69	29.3375	-19.0492	-132.947	31.3002	-27.4053	-203.293	3.69646	-13.4969	-211.738	-17.3669	-1.93682	-227.709	6.1315	-9.64654	
226	1.88333	-242.879	33.3023	12.7253	-229.886	60.0053	18.0098	-222.711	81.7706	20.7991	-208.877	98.5619	20.0561	-209.992	69.1506	-27.4079	-194.4	88.2404	-12.0167	-192.403	88.2836	16.5568	-188.947	56.3951	-37.4886	-174.549	76.6437	-43.5869	-163.443	98.787	-47.5742	-180.221	36.8232	-31.0277	-163.365	52.2251	-44.5008	-155.93	65.3182	-53.4245	-164.291	18.0473	-18.272	-150.194	23.8461	-23.0011	-135.063	27.7139	-35.4539	-204.337	3.59005	-14.1805	-218.808	-14.6076	-2.08047	-233.156	12.9343	-12.892	
227	1.89167	-243.632	41.2599	12.7436	-230.856	67.8251	17.2627	-216.122	80.9571	13.8992	-198.301	101.967	9.22252	-205.764	72.5042	-31.8164	-191.729	90.5067	-16.1415	-182.253	86.4084	7.06843	-194.509	54.7216	-41.6115	-174.671	71.8664	-50.0611	-160.729	91.8436	-55.4812	-178.997	37.1042	-40.5157	-168.777	52.0568	-51.7656	-155.812	60.297	-60.7568	-168.535	18.9881	-25.6208	-152.929	21.6026	-30.8173	-138.094	19.5338	-42.9195	-210.357	6.08857	-17.6953	-224.384	-9.13138	0.31199	-235.997	18.0398	-11.737	
228	1.9	-239.05	50.5518	12.1111	-219.033	70.7885	13.2517	-203.723	90.9896	8.33945	-184.523	101.146	1.65449	-204.251	72.5094	-34.9242	-182.469	88.2365	-23.371	-174.735	85.1106	2.10102	-192.864	55.6025	-48.0052	-172.902	71.0772	-59.1517	-155.678	86.6248	-66.5109	-184.493	37.5342	-46.3553	-168.174	44.7448	-58.4574	-155.832	56.6484	-72.0702	-171.611	11.6902	-31.7107	-156.476	12.3144	-38.17	-146.863	13.1031	-51.1978	-211.795	9.51416	-21.7135	-230.528	-0.507965	-3.34275	-238.033	22.8937	-11.1632	
229	1.90833	-230.472	55.7135	13.3003	-207.701	74.3685	11.3545	-188.55	86.3573	4.85925	-168.346	94.6784	-2.8173	-197.368	72.6489	-37.8672	-172.905	85.228	-30.2811	-164.413	78.2615	-0.716481	-190.918	55.2423	-51.9345	-170.083	66.1158	-66.053	-150.131	75.1844	-76.2654	-183.772	31.3002	-51.5844	-169.985	39.938	-65.5972	-155.249	45.0153	-79.3569	-181.479	9.57645	-34.4729	-167.467	5.04476	-42.709	-157.005	-1.99418	-56.0729	-219.754	17.6997	-24.1248	-233.477	6.32855	-2.22987	-239.63	36.7432	-13.2471	
230	1.91667	-220.474	65.2327	13.5632	-194.007	75.0016	12.1508	-172.354	81.4043	3.62877	-149.581	88.9025	-4.45669	-183.659	69.8872	-41.4756	-159.141	74.188	-34.6879	-150.609	69.004	-4.33465	-186.383	50.858	-55.1591	-165.86	54.2741	-69.3934	-146.394	56.5212	-81.0182	-188.324	25.6117	-49.0432	-172.574	32.4795	-67.5811	-161.727	33.4979	-79.496	-189.084	4.03411	-35.4605	-176.068	-3.43559	-50.5312	-168.916	-6.38317	-64.9481	-222.06	20.9421	-21.5717	-239.054	18.4043	-1.27419	-236.128	46.7869	-9.08841	
231	1.925	-208.984	68.3215	13.2904	-180.738	72.8424	11.8153	-159.329	73.5466	1.29723	-135.429	73.5778	-10.6327	-179.047	70.0918	-42.003	-151.285	65.5123	-38.307	-141.401	56.4916	-14.0218	-187.738	49.1529	-53.958	-165.726	48.3727	-73.8077	-149.214	42.6265	-85.9141	-192.86	25.5375	-53.2783	-179.092	23.2711	-69.6029	-167.597	21.9503	-87.5623	-196.609	3.03607	-40.5368	-190.935	-1.96881	-48.4918	-190.337	-11.8088	-65.6167	-223.579	29.6329	-18.1483	-240.491	26.282	1.98206	-229.298	52.5347	-10.6366	
232	1.93333	-198.771	70.7323	14.4026	-169.068	66.0488	5.33235	-149.329	63.3468	-3.40566	-129.508	57.8576	-15.1037	-175.819	64.1008	-43.9771	-147.447	52.5821	-42.09	-136.89	40.4197	-18.5281	-189.545	42.1515	-56.4646	-170.112	41.5972	-74.6244	-150.651	34.9421	-92.3587	-197.443	29.2063	-52.9865	-190.359	20.4011	-69.3672	-180.262	21.6067	-87.1702	-208.335	5.18271	-37.8022	-203.829	-2.23995	-54.1798	-208.83	-9.03723	-68.1021	-225.318	35.14	-19.6326	-236.484	40.1771	3.09689	-225.501	60.1359	-7.46855	
233	1.94167	-188.934	67.6952	11.4256	-158.505	61.6518	3.83272	-142.673	53.0793	-8.53844	-124.812	46.0331	-17.6022	-169.547	59.5412	-46.2857	-147.237	44.8715	-46.8076	-137.574	25.5859	-22.371	-186.452	45.5498	-59.0435	-170.893	36.8334	-78.1206	-157.67	27.6072	-96.8846	-203.002	28.9473	-54.4953	-198.309	20.1098	-71.7296	-191.257	19.0697	-91.2047	-214.651	12.7964	-36.7194	-215.935	3.58656	-52.3195	-225.003	0.392707	-63.0742	-224.542	41.6332	-16.7871	-235.245	45.7001	5.85726	-218.251	64.8024	-5.30826	
